<svg width="80" height="80" viewBox="0 0 80 80" fill="none" xmlns="http://www.w3.org/2000/svg">
<circle cx="40" cy="40" r="40" fill="url(#paint0_angular_609_165)" fill-opacity="0.31"/>
<path d="M61.6517 35.5C61.8904 35.5 62.0964 35.6686 62.1383 35.9036C62.3724 37.2179 62.5 38.6325 62.5 40C62.5 45.764 60.3322 51.022 56.7675 55.0031C56.5896 55.2018 56.2862 55.2191 56.0827 55.0469L49.9686 49.8721C49.7458 49.6836 49.7319 49.3456 49.9292 49.1305C51.1465 47.8038 52.1023 46.2327 52.7159 44.5H40.5C40.2239 44.5 40 44.2761 40 44V36C40 35.7239 40.2239 35.5 40.5 35.5H61.6517Z" fill="#2E0F46"/>
<path d="M46.1817 52.0002C46.3658 51.9048 46.5898 51.9264 46.748 52.0603L53.167 57.4921C53.4109 57.6984 53.4015 58.0776 53.1424 58.2643C49.4449 60.9297 44.9057 62.5 40 62.5C32.0952 62.5 25.142 58.4228 21.1288 52.2568C20.9886 52.0415 21.0406 51.7556 21.2441 51.5988L27.6074 46.6961C27.8525 46.5073 28.2081 46.5846 28.3653 46.851C30.7137 50.8303 35.0453 53.5 40 53.5C42.2296 53.5 44.331 52.9585 46.1817 52.0002Z" fill="#2E0F46"/>
<path d="M26.6978 42.3153C26.7301 42.5021 26.6591 42.6928 26.5089 42.8085L19.6723 48.0759C19.4105 48.2776 19.0285 48.1744 18.913 47.8648C17.9994 45.4166 17.5 42.7666 17.5 40C17.5 37.1187 18.0417 34.3638 19.0288 31.8316C19.1461 31.5309 19.5165 31.4289 19.7768 31.6197L26.607 36.6289C26.7696 36.7481 26.8438 36.953 26.8014 37.1501C26.604 38.0689 26.5 39.0223 26.5 40C26.5 40.7894 26.5678 41.563 26.6978 42.3153Z" fill="#2E0F46"/>
<path d="M27.8678 32.9032C28.1075 33.0789 28.4461 33.0075 28.6058 32.7568C31.0021 28.9953 35.2099 26.5 40 26.5C43.2718 26.5 46.263 27.6735 48.5984 29.6115C48.8022 29.7806 49.1024 29.7726 49.2896 29.5854L54.954 23.921C55.1542 23.7208 55.1488 23.3942 54.9374 23.2059C50.9634 19.6667 45.7403 17.5 40 17.5C32.2003 17.5 25.3271 21.4695 21.2904 27.4983C21.1437 27.7175 21.199 28.0124 21.4117 28.1684L27.8678 32.9032Z" fill="#2E0F46"/>
<defs>
<radialGradient id="paint0_angular_609_165" cx="0" cy="0" r="1" gradientUnits="userSpaceOnUse" gradientTransform="translate(40 40) rotate(90) scale(40)">
<stop stop-color="#2E0F46"/>
<stop offset="1" stop-color="#2E0F46" stop-opacity="0"/>
</radialGradient>
</defs>
</svg>
