<svg width="80" height="80" viewBox="0 0 80 80" fill="none" xmlns="http://www.w3.org/2000/svg">
<path d="M45.5 17.1875C42.4334 17.1875 39.4925 18.4057 37.3241 20.5741C35.1557 22.7425 33.9375 25.6834 33.9375 28.75V35.1875H27.75C27.4393 35.1875 27.1875 35.4393 27.1875 35.75V44.25C27.1875 44.5607 27.4393 44.8125 27.75 44.8125H33.9375V62.25C33.9375 62.5607 34.1893 62.8125 34.5 62.8125H43C43.3107 62.8125 43.5625 62.5607 43.5625 62.25V44.8125H49.8048C50.0629 44.8125 50.2879 44.6368 50.3505 44.3864L52.4755 35.8864C52.5643 35.5314 52.2957 35.1875 51.9298 35.1875H43.5625V28.75C43.5625 28.2361 43.7666 27.7433 44.13 27.38C44.4933 27.0166 44.9861 26.8125 45.5 26.8125H52C52.3107 26.8125 52.5625 26.5607 52.5625 26.25V17.75C52.5625 17.4393 52.3107 17.1875 52 17.1875H45.5Z" fill="#2E0F46"/>
<circle cx="40" cy="40" r="40" fill="url(#paint0_angular_4_43)" fill-opacity="0.31"/>
<defs>
<radialGradient id="paint0_angular_4_43" cx="0" cy="0" r="1" gradientUnits="userSpaceOnUse" gradientTransform="translate(40 40) rotate(90) scale(40)">
<stop stop-color="#2E0F46"/>
<stop offset="1" stop-color="#2E0F46" stop-opacity="0"/>
</radialGradient>
</defs>
</svg>
