<svg width="80" height="80" viewBox="0 0 80 80" fill="none" xmlns="http://www.w3.org/2000/svg">
<circle cx="40" cy="40" r="40" fill="url(#paint0_angular_609_166)" fill-opacity="0.31"/>
<path d="M39.2576 21.0392C39.3304 18.7781 39.9532 15.4473 42.1208 13.2591C44.1328 11.2278 46.5821 10.2379 48.1076 9.78532C48.6965 9.6106 49.2616 10.0547 49.2326 10.6683C49.1304 12.8328 48.5612 16.0613 47.0928 17.7909C45.7085 19.4213 43.4817 21.5833 40.2199 21.9471C39.6861 22.0066 39.2403 21.5761 39.2576 21.0392Z" fill="#2E0F46"/>
<path d="M44.8427 62.4239C46.4089 63.0239 47.9925 63.6305 49.4258 63.6305C52.4917 63.6305 61.4195 56.5566 61.7411 49.2096C61.7576 48.8323 61.5322 48.4953 61.2026 48.3109C58.9317 47.0401 55.2233 43.8759 55.0942 39.2726C54.9438 33.908 57.6373 29.647 59.6759 27.8845C60.1347 27.4878 60.2923 26.7883 59.8827 26.341C58.0279 24.3155 54.2966 21.5294 50.8921 21.5978C48.4152 21.6475 46.1836 22.5701 44.2686 23.3619C42.7995 23.9693 41.5167 24.4996 40.4525 24.4996C39.4446 24.4996 38.2346 23.9727 36.8458 23.3679C34.9755 22.5534 32.781 21.5978 30.3193 21.5978C25.7595 21.5978 16.75 25.379 16.75 39.9761C16.75 47.7143 24.7384 63.8357 31.4793 63.6305C32.9349 63.6305 34.4905 63.0278 36.0341 62.4297C37.5541 61.8407 39.0626 61.2563 40.4525 61.2563C41.7946 61.2563 43.3103 61.8369 44.8427 62.4239Z" fill="#2E0F46"/>
<defs>
<radialGradient id="paint0_angular_609_166" cx="0" cy="0" r="1" gradientUnits="userSpaceOnUse" gradientTransform="translate(40 40) rotate(90) scale(40)">
<stop stop-color="#2E0F46"/>
<stop offset="1" stop-color="#2E0F46" stop-opacity="0"/>
</radialGradient>
</defs>
</svg>
